<svg width="24" height="24" viewBox="0 0 24 24" fill="none" xmlns="http://www.w3.org/2000/svg">
<g clip-path="url(#clip0_9_223)">
<path d="M12 24C18.6353 24 24 18.6353 24 12C24 5.36471 18.6353 0 12 0C5.36471 0 0 5.36471 0 12C0 18.6353 5.36471 24 12 24Z" fill="#892CDC"/>
<path d="M9.1059 9.95294H10.3765V8.75294C10.3765 8.18823 10.3765 7.41176 10.8 6.91765C11.153 6.35294 11.7177 6 12.7059 6C14.2588 6 14.9647 6.21176 14.9647 6.21176L14.6824 8.04706C14.6824 8.04706 14.1882 7.90588 13.6941 7.90588C13.2 7.90588 12.7765 8.04706 12.7765 8.54118V9.95294H14.753L14.6118 11.7176H12.7059V17.9294H10.3765V11.7176H9.1059V9.95294Z" fill="white"/>
</g>
<defs>
<clipPath id="clip0_9_223">
<rect width="24" height="24" fill="white"/>
</clipPath>
</defs>
</svg>
