<svg width="34" height="23" viewBox="0 0 34 23" fill="none" xmlns="http://www.w3.org/2000/svg">
<rect x="0.5" y="0.5" width="33" height="22" rx="5.5" fill="#1F72CD" stroke="#D9D9D9"/>
<path fill-rule="evenodd" clip-rule="evenodd" d="M6.09542 8.14587L2.91431 15.0907H6.72254L7.19465 13.9834H8.27379L8.7459 15.0907H12.9377V14.2456L13.3112 15.0907H15.4795L15.8531 14.2277V15.0907H24.5709L25.6309 14.0121L26.6235 15.0907L31.1011 15.0996L27.91 11.6377L31.1011 8.14587H26.6929L25.661 9.20448L24.6997 8.14587H15.2159L14.4015 9.93839L13.568 8.14587H9.76774V8.96224L9.34498 8.14587H6.09542ZM19.1137 9.13205H24.1198L25.651 10.7637L27.2315 9.13205H28.7627L26.4362 11.6367L28.7627 14.1125H27.1621L25.6309 12.4619L24.0423 14.1125H19.1137V9.13205ZM20.3499 11.0736V10.1638V10.163H23.4736L24.8366 11.6178L23.4132 13.0806H20.3499V12.0875H23.081V11.0736H20.3499ZM6.83229 9.13205H8.6886L10.7986 13.8414V9.13205H12.8322L14.4619 12.5086L15.9639 9.13205H17.9873V14.1154H16.7561L16.746 10.2105L14.9511 14.1154H13.8498L12.0448 10.2105V14.1154H9.51203L9.03186 12.9982H6.43769L5.95851 14.1144H4.60147L6.83229 9.13205ZM6.88064 11.9654L7.73532 9.9752L8.58901 11.9654H6.88064Z" fill="white"/>
</svg>
