<svg width="33" height="23" viewBox="0 0 33 23" fill="none" xmlns="http://www.w3.org/2000/svg">
<rect x="0.5" y="0.5" width="32" height="22" rx="5.5" fill="white" stroke="#D9D9D9"/>
<path fill-rule="evenodd" clip-rule="evenodd" d="M7.86929 8.56079C8.31247 8.59879 8.75565 8.3328 9.03264 7.99557C9.30502 7.64883 9.48506 7.18335 9.43889 6.70837C9.04649 6.72737 8.56176 6.97436 8.28477 7.3211C8.03087 7.62033 7.81389 8.10481 7.86929 8.56079ZM13.1413 14.6785V7.2736H15.8419C17.2361 7.2736 18.2102 8.26155 18.2102 9.70549C18.2102 11.1494 17.2177 12.1469 15.805 12.1469H14.2585V14.6785H13.1413ZM9.43424 8.65103C9.0438 8.62791 8.68755 8.77184 8.39979 8.8881C8.21461 8.96291 8.0578 9.02627 7.9385 9.02627C7.80462 9.02627 7.64134 8.95953 7.458 8.88459L7.458 8.88459C7.21778 8.7864 6.94313 8.67414 6.65512 8.67953C5.99497 8.68903 5.38098 9.07376 5.04397 9.68649C4.3515 10.9119 4.86393 12.7264 5.53332 13.7238C5.86109 14.2178 6.25349 14.7593 6.77053 14.7403C6.998 14.7314 7.16163 14.66 7.33097 14.5861C7.52593 14.5009 7.72845 14.4125 8.04468 14.4125C8.34995 14.4125 8.54362 14.4986 8.72953 14.5813C8.9063 14.6599 9.07605 14.7354 9.32806 14.7308C9.86357 14.7213 10.2006 14.2368 10.5283 13.7428C10.8821 13.2126 11.0375 12.6952 11.0611 12.6167L11.0639 12.6076C11.0633 12.607 11.0589 12.605 11.0512 12.6013L11.0512 12.6013C10.933 12.5456 10.0292 12.1199 10.0205 10.9784C10.0118 10.0203 10.7374 9.53484 10.8516 9.45842C10.8585 9.45377 10.8632 9.45063 10.8653 9.449C10.4037 8.74603 9.68353 8.67003 9.43424 8.65103ZM20.2507 14.7355C20.9524 14.7355 21.6034 14.3698 21.8988 13.7903H21.9219V14.6785H22.956V10.9927C22.956 9.92398 22.125 9.23526 20.8463 9.23526C19.6598 9.23526 18.7827 9.93348 18.7504 10.8929H19.7568C19.8399 10.437 20.2507 10.1377 20.8139 10.1377C21.4972 10.1377 21.8803 10.4655 21.8803 11.0687V11.4772L20.4862 11.5627C19.1889 11.6434 18.4872 12.1896 18.4872 13.1396C18.4872 14.099 19.212 14.7355 20.2507 14.7355ZM20.5507 13.8568C19.9552 13.8568 19.5766 13.5623 19.5766 13.1111C19.5766 12.6456 19.9414 12.3749 20.6384 12.3321L21.8803 12.2514V12.6694C21.8803 13.3628 21.3078 13.8568 20.5507 13.8568ZM26.386 14.9683C25.9382 16.2649 25.4258 16.6924 24.3363 16.6924C24.2532 16.6924 23.9762 16.6829 23.9115 16.6639V15.7757C23.9808 15.7852 24.1516 15.7947 24.2393 15.7947C24.7333 15.7947 25.0103 15.581 25.1811 15.0253L25.2826 14.6975L23.3899 9.30651H24.5579L25.8735 13.6811H25.8966L27.2123 9.30651H28.348L26.386 14.9683ZM14.2584 8.24255H15.5464C16.5159 8.24255 17.0698 8.77453 17.0698 9.71024C17.0698 10.6459 16.5159 11.1827 15.5418 11.1827H14.2584V8.24255Z" fill="black"/>
</svg>
