<svg width="33" height="23" viewBox="0 0 33 23" fill="none" xmlns="http://www.w3.org/2000/svg">
<rect x="0.5" y="0.5" width="32" height="22" rx="5.5" fill="white" stroke="#D9D9D9"/>
<path fill-rule="evenodd" clip-rule="evenodd" d="M16.7357 16.442C15.6123 17.4275 14.1549 18.0223 12.5624 18.0223C9.00913 18.0223 6.1286 15.0606 6.1286 11.407C6.1286 7.75342 9.00913 4.79163 12.5624 4.79163C14.1549 4.79163 15.6123 5.38651 16.7357 6.37195C17.8592 5.38651 19.3166 4.79163 20.909 4.79163C24.4624 4.79163 27.3429 7.75342 27.3429 11.407C27.3429 15.0606 24.4624 18.0223 20.909 18.0223C19.3166 18.0223 17.8592 17.4275 16.7357 16.442Z" fill="#ED0006"/>
<path fill-rule="evenodd" clip-rule="evenodd" d="M16.7357 16.442C18.1191 15.2286 18.9963 13.4231 18.9963 11.407C18.9963 9.39083 18.1191 7.58533 16.7357 6.37195C17.8592 5.38651 19.3165 4.79163 20.909 4.79163C24.4623 4.79163 27.3429 7.75342 27.3429 11.407C27.3429 15.0606 24.4623 18.0223 20.909 18.0223C19.3165 18.0223 17.8592 17.4275 16.7357 16.442Z" fill="#F9A000"/>
<path fill-rule="evenodd" clip-rule="evenodd" d="M16.7358 6.37195C18.1191 7.58533 18.9963 9.39082 18.9963 11.407C18.9963 13.4231 18.1191 15.2286 16.7358 16.442C15.3524 15.2286 14.4753 13.4231 14.4753 11.407C14.4753 9.39082 15.3524 7.58533 16.7358 6.37195Z" fill="#FF5E00"/>
</svg>
