<svg width="34" height="23" viewBox="0 0 34 23" fill="none" xmlns="http://www.w3.org/2000/svg">
<rect x="0.5" y="0.5" width="33" height="22" rx="5.5" fill="white" stroke="#D9D9D9"/>
<path fill-rule="evenodd" clip-rule="evenodd" d="M9.61714 14.6058H8.10597C8.00256 14.6058 7.91461 14.68 7.89849 14.7807L7.28729 18.6035C7.27514 18.679 7.33436 18.747 7.41192 18.747H8.13337C8.23678 18.747 8.32473 18.6728 8.34085 18.5719L8.5057 17.5409C8.5216 17.4399 8.60977 17.3658 8.71296 17.3658H9.19135C10.1868 17.3658 10.7613 16.8906 10.9114 15.9489C10.979 15.5369 10.9143 15.2132 10.7186 14.9864C10.5039 14.7376 10.1229 14.6058 9.61714 14.6058ZM9.79149 16.0021C9.70886 16.537 9.29454 16.537 8.89394 16.537H8.66589L8.82587 15.5379C8.83537 15.4776 8.8884 15.4331 8.95028 15.4331H9.05479C9.32768 15.4331 9.58513 15.4331 9.71817 15.5866C9.79742 15.6782 9.82175 15.8141 9.79149 16.0021ZM14.1344 15.9849H13.4107C13.3491 15.9849 13.2958 16.0294 13.2863 16.0898L13.2543 16.2895L13.2037 16.2171C13.047 15.9928 12.6977 15.9178 12.349 15.9178C11.5493 15.9178 10.8663 16.5153 10.7333 17.3535C10.6641 17.7716 10.7624 18.1713 11.0028 18.4502C11.2234 18.7065 11.5389 18.8133 11.9143 18.8133C12.5586 18.8133 12.916 18.4046 12.916 18.4046L12.8837 18.603C12.8715 18.6789 12.9307 18.7469 13.0078 18.7469H13.6597C13.7634 18.7469 13.8508 18.6727 13.8672 18.5718L14.2583 16.1284C14.2707 16.0532 14.2117 15.9849 14.1344 15.9849ZM13.1256 17.3744C13.0558 17.7823 12.7277 18.056 12.3092 18.056C12.0991 18.056 11.9311 17.9896 11.8233 17.8636C11.7164 17.7385 11.6757 17.5603 11.7097 17.362C11.7749 16.9576 12.1086 16.6749 12.5207 16.6749C12.7261 16.6749 12.8932 16.7422 13.0032 16.8693C13.1135 16.9977 13.1572 17.1769 13.1256 17.3744ZM17.2613 15.9848H17.9885C18.0904 15.9848 18.1498 16.0975 18.0919 16.1799L15.6732 19.6241C15.6341 19.6799 15.5696 19.7131 15.5006 19.7131H14.7743C14.6721 19.7131 14.6123 19.5995 14.6715 19.5169L15.4247 18.4681L14.6237 16.1492C14.596 16.0686 14.6563 15.9848 14.7432 15.9848H15.4578C15.5506 15.9848 15.6325 16.045 15.6593 16.1326L16.0844 17.5332L17.0874 16.0757C17.1267 16.0188 17.192 15.9848 17.2613 15.9848Z" fill="#253B80"/>
<path fill-rule="evenodd" clip-rule="evenodd" d="M25.1459 18.6035L25.7661 14.7107C25.7756 14.6503 25.8286 14.6058 25.8903 14.6056H26.5885C26.6656 14.6056 26.7248 14.6738 26.7126 14.7492L26.101 18.5719C26.0851 18.6728 25.9972 18.7469 25.8936 18.7469H25.27C25.1929 18.7469 25.1337 18.6789 25.1459 18.6035ZM20.3962 14.6058H18.8847C18.7816 14.6058 18.6936 14.6799 18.6775 14.7806L18.0663 18.6035C18.0541 18.6789 18.1133 18.7469 18.1905 18.7469H18.966C19.0381 18.7469 19.0998 18.6951 19.111 18.6244L19.2845 17.5408C19.3004 17.4398 19.3886 17.3658 19.4917 17.3658H19.9699C20.9655 17.3658 21.5399 16.8906 21.6901 15.9489C21.7579 15.5369 21.6928 15.2132 21.4973 14.9864C21.2826 14.7375 20.9019 14.6058 20.3962 14.6058ZM20.5705 16.002C20.4881 16.537 20.0738 16.537 19.6729 16.537H19.4451L19.6053 15.5379C19.6148 15.4776 19.6674 15.4331 19.7295 15.4331H19.834C20.1067 15.4331 20.3644 15.4331 20.4973 15.5865C20.5767 15.6781 20.6008 15.8141 20.5705 16.002ZM24.913 15.9849H24.1899C24.1277 15.9849 24.0749 16.0294 24.0656 16.0898L24.0336 16.2894L23.9828 16.2171C23.8262 15.9928 23.4771 15.9178 23.1284 15.9178C22.3286 15.9178 21.6459 16.5153 21.5128 17.3535C21.4439 17.7715 21.5418 18.1713 21.7822 18.4501C22.0031 18.7065 22.3183 18.8133 22.6937 18.8133C23.338 18.8133 23.6953 18.4045 23.6953 18.4045L23.6631 18.603C23.6509 18.6788 23.7101 18.7468 23.7877 18.7468H24.4393C24.5425 18.7468 24.6304 18.6727 24.6466 18.5718L25.0379 16.1283C25.0499 16.0532 24.9906 15.9849 24.913 15.9849ZM23.9044 17.3744C23.835 17.7822 23.5064 18.056 23.0879 18.056C22.8781 18.056 22.7098 17.9895 22.6019 17.8635C22.495 17.7384 22.4548 17.5603 22.4884 17.362C22.554 16.9575 22.8872 16.6749 23.2993 16.6749C23.5049 16.6749 23.6719 16.7422 23.782 16.8693C23.8926 16.9977 23.9364 17.1769 23.9044 17.3744Z" fill="#179BD7"/>
<path d="M15.2097 13.2382L15.3955 12.0741L14.9816 12.0646H13.0056L14.3789 3.47429C14.383 3.44835 14.3969 3.42417 14.4172 3.407C14.4374 3.38983 14.4634 3.38037 14.4904 3.38037H17.8224C18.9286 3.38037 19.692 3.60746 20.0906 4.05566C20.2774 4.26593 20.3964 4.48565 20.454 4.72746C20.5143 4.98118 20.5154 5.28431 20.4564 5.65403L20.4521 5.68101V5.9179L20.6391 6.02234C20.7964 6.10469 20.9214 6.19896 21.0173 6.3069C21.1772 6.48667 21.2806 6.71516 21.3243 6.98604C21.3694 7.26465 21.3544 7.59616 21.2806 7.97148C21.1953 8.40323 21.0575 8.77925 20.8714 9.08694C20.7001 9.37044 20.482 9.60554 20.2231 9.78782C19.9758 9.96093 19.682 10.0924 19.3499 10.1765C19.028 10.2591 18.6611 10.3009 18.2586 10.3009H17.9993C17.8139 10.3009 17.6338 10.3668 17.4924 10.4849C17.3507 10.6054 17.2568 10.7701 17.2281 10.9502L17.2086 11.055L16.8803 13.1068L16.8654 13.1821C16.8615 13.2061 16.8548 13.218 16.8449 13.226C16.836 13.2333 16.8232 13.2382 16.8107 13.2382H15.2097Z" fill="#253B80"/>
<path d="M20.8159 5.7085C20.806 5.77122 20.7947 5.83535 20.7819 5.90123C20.3424 8.12688 18.8391 8.89575 16.9191 8.89575H15.9415C15.7067 8.89575 15.5089 9.06395 15.4723 9.29244L14.9717 12.424L14.83 13.3116C14.8062 13.4616 14.9235 13.5969 15.0768 13.5969H16.8108C17.0161 13.5969 17.1905 13.4497 17.2228 13.25L17.2399 13.163L17.5664 11.1193L17.5873 11.0072C17.6192 10.8067 17.794 10.6596 17.9993 10.6596H18.2586C19.9385 10.6596 21.2536 9.98671 21.638 8.03962C21.7985 7.22625 21.7154 6.5471 21.2905 6.06945C21.162 5.92541 21.0025 5.80591 20.8159 5.7085Z" fill="#179BD7"/>
<path d="M20.3561 5.52779C20.289 5.50851 20.2197 5.49099 20.1486 5.47522C20.0772 5.4598 20.004 5.44614 19.9288 5.43422C19.6652 5.39217 19.3764 5.37219 19.067 5.37219H16.4553C16.391 5.37219 16.33 5.38656 16.2753 5.41249C16.1548 5.46961 16.0653 5.58211 16.0437 5.71983L15.488 9.19129L15.472 9.29256C15.5087 9.06407 15.7065 8.89586 15.9413 8.89586H16.9189C18.8389 8.89586 20.3423 8.12665 20.7817 5.90135C20.7948 5.83547 20.8058 5.77134 20.8157 5.70862C20.7046 5.65044 20.5841 5.60068 20.4545 5.55827C20.4226 5.54776 20.3895 5.5376 20.3561 5.52779Z" fill="#222D65"/>
<path d="M16.0437 5.71977C16.0653 5.58204 16.1549 5.46955 16.2753 5.41278C16.3304 5.38684 16.3911 5.37248 16.4553 5.37248H19.0671C19.3765 5.37248 19.6653 5.39245 19.9288 5.43451C20.0041 5.44642 20.0773 5.46009 20.1487 5.4755C20.2198 5.49128 20.289 5.5088 20.3562 5.52807C20.3895 5.53788 20.4226 5.54804 20.4549 5.55821C20.5845 5.60061 20.705 5.65073 20.8161 5.70855C20.9469 4.88607 20.8151 4.32606 20.3644 3.81897C19.8674 3.26073 18.9704 3.02173 17.8227 3.02173H14.4906C14.2561 3.02173 14.0562 3.18993 14.0199 3.41877L12.6321 12.0974C12.6047 12.2691 12.739 12.4241 12.9144 12.4241H14.9716L15.4881 9.19122L16.0437 5.71977Z" fill="#253B80"/>
</svg>
