<svg width="33" height="23" viewBox="0 0 33 23" fill="none" xmlns="http://www.w3.org/2000/svg">
<rect x="0.5" y="0.5" width="32" height="22" rx="5.5" fill="white" stroke="#D9D9D9"/>
<path fill-rule="evenodd" clip-rule="evenodd" d="M10.0181 15.5809H8.01894L6.51982 9.76773C6.44866 9.50033 6.29758 9.26393 6.07534 9.15251C5.52072 8.87251 4.90957 8.64967 4.24286 8.53729V8.31348H7.46335C7.90782 8.31348 8.24118 8.64967 8.29674 9.04012L9.07457 13.2333L11.0728 8.31348H13.0164L10.0181 15.5809ZM14.1275 15.5809H12.2395L13.7942 8.31348H15.6822L14.1275 15.5809ZM18.1249 10.3268C18.1804 9.93535 18.5138 9.71154 18.9027 9.71154C19.5139 9.65535 20.1796 9.76774 20.7352 10.0468L21.0686 8.48207C20.513 8.25826 19.9018 8.14587 19.3472 8.14587C17.5147 8.14587 16.1813 9.15251 16.1813 10.5496C16.1813 11.6124 17.1258 12.1705 17.7925 12.5067C18.5138 12.8419 18.7916 13.0657 18.736 13.4009C18.736 13.9038 18.1804 14.1276 17.6258 14.1276C16.9591 14.1276 16.2924 13.96 15.6822 13.68L15.3489 15.2456C16.0156 15.5247 16.7369 15.6371 17.4036 15.6371C19.4583 15.6923 20.7352 14.6866 20.7352 13.1771C20.7352 11.2762 18.1249 11.1648 18.1249 10.3268ZM27.3429 15.5809L25.8437 8.31348H24.2335C23.9001 8.31348 23.5668 8.53729 23.4557 8.87251L20.6796 15.5809H22.6232L23.0112 14.519H25.3993L25.6215 15.5809H27.3429ZM24.5113 10.2706L25.0659 13.0095H23.5112L24.5113 10.2706Z" fill="#172B85"/>
</svg>
